HIERARCHY
ROOT HipCenter
{
    OFFSET 0.0 0.0 -0.0
    CHANNELS 6 Xposition Yposition Zposition Zrotation Xrotation Yrotation
    JOINT Spine
    {
        OFFSET 0.0 12.241787910461426 0.0
        CHANNELS 3 Zrotation Xrotation Yrotation
        JOINT ShoulderCenter
        {
            OFFSET 0.0 35.041839599609375 0.0
            CHANNELS 3 Zrotation Xrotation Yrotation
            JOINT LeftShoulder
            {
                OFFSET 18.595348358154297 0.0 0.0
                CHANNELS 3 Zrotation Xrotation Yrotation
                JOINT LeftElbow
                {
                    OFFSET 29.717397689819336 0.0 0.0
                    CHANNELS 3 Zrotation Xrotation Yrotation
                    JOINT LeftWrist
                    {
                        OFFSET 30.158843994140625 0.0 0.0
                        CHANNELS 3 Zrotation Xrotation Yrotation
                        JOINT LeftHand
                        {
                            OFFSET 4.084925174713135 0.0 0.0
                            CHANNELS 3 Zrotation Xrotation Yrotation
                            End Site
                            {
                                OFFSET 1.6339701414108276 0.0 0.0
                            }
                        }
                    }
                }
            }
            JOINT RightShoulder
            {
                OFFSET -18.595348358154297 0.0 0.0
                CHANNELS 3 Zrotation Xrotation Yrotation
                JOINT RightElbow
                {
                    OFFSET -29.717397689819336 0.0 0.0
                    CHANNELS 3 Zrotation Xrotation Yrotation
                    JOINT RightWrist
                    {
                        OFFSET -30.158843994140625 0.0 0.0
                        CHANNELS 3 Zrotation Xrotation Yrotation
                        JOINT RightHand
                        {
                            OFFSET -4.084925174713135 0.0 0.0
                            CHANNELS 3 Zrotation Xrotation Yrotation
                            End Site
                            {
                                OFFSET -1.6339701414108276 0.0 0.0
                            }
                        }
                    }
                }
            }
            End Site
            {
                OFFSET 0.0 14.016736030578613 0.0
            }
        }
    }
    JOINT LeftHip
    {
        OFFSET 15.674201965332031 0.0 0.0
        CHANNELS 3 Zrotation Xrotation Yrotation
        JOINT LeftKnee
        {
            OFFSET 0.0 -41.608306884765625 0.0
            CHANNELS 3 Zrotation Xrotation Yrotation
            JOINT LeftAnkle
            {
                OFFSET 0.0 -41.75336456298828 0.0
                CHANNELS 3 Zrotation Xrotation Yrotation
                JOINT LeftFoot
                {
                    OFFSET 0.0 -9.873034477233887 0.0
                    CHANNELS 3 Zrotation Xrotation Yrotation
                    End Site
                    {
                        OFFSET 0.0 0.0 3.949213981628418
                    }
                }
            }
        }
    }
    JOINT RightHip
    {
        OFFSET -15.674201965332031 0.0 0.0
        CHANNELS 3 Zrotation Xrotation Yrotation
        JOINT RightKnee
        {
            OFFSET 0.0 -41.608306884765625 0.0
            CHANNELS 3 Zrotation Xrotation Yrotation
            JOINT RightAnkle
            {
                OFFSET 0.0 -41.75336456298828 0.0
                CHANNELS 3 Zrotation Xrotation Yrotation
                JOINT RightFoot
                {
                    OFFSET 0.0 -9.873034477233887 0.0
                    CHANNELS 3 Zrotation Xrotation Yrotation
                    End Site
                    {
                        OFFSET 0.0 0.0 3.949213981628418
                    }
                }
            }
        }
    }
}
MOTION
Frames: 5
Frame Time: 0.03333333333333333
-93.0 -1.4000000953674316 -16.899999618530273 -2.815549602623766 -7.462642671791118 97.46797039264537 3.205794520717595 -2.590251017404768 0.05565187213254234 1.889286944355759e-07 -3.7959980166183947e-07 -3.6796003539543087 94.25941796097445 0.4461111675382186 171.08668076792026 2.7963618822250143e-06 1.4005921142511634e-06 33.40337538003004 -179.99999898508028 -26.272294191992355 -120.57119744418625 0.0 0.0 -3.1805546814635168e-15 -96.44868681607225 -5.596732119507045 -171.3217434168371 4.572584286868245e-06 6.303465892300929e-07 -31.602877308570154 -7.821112985100263e-07 -13.066232974943745 -27.05774630767498 0.0 6.361109362927033e-15 0.0 4.420935521866621 -11.828772838038041 -16.235750904199847 -5.03750549749555 25.748511683420645 -21.515688097341865 87.98338382717348 -43.07622015744606 135.96172809460037 -7.951386703658792e-16 2.2069531490250793e-32 -3.1805546814635168e-15 7.673858207662822 -4.262505818351586 20.688843739388517 1.0099609641670013 17.963084094986524 12.171755700288282 -86.07093503984414 -39.23722035843843 -131.35555318976185 6.3611093629270335e-15 -3.1805546814635168e-15 -3.1805546814635168e-15
-92.9000015258789 -1.4000000953674316 -17.200000762939453 -2.8155852130083163 -7.001006200846416 97.50057923350644 2.605993947580125 -2.3474160995841657 0.04565984345361801 1.5685838748050312e-07 5.576600338236384e-08 -3.870540049960962 94.68208070328882 1.0075362811779167 171.03880587271047 -9.159314131527639e-07 6.72851953024943e-07 33.13488089228748 179.9999988373677 -26.421489869877384 -121.17807458070223 0.0 0.0 -1.5902773407317584e-15 -96.35830826840184 -5.430687382737694 -171.74175014983396 2.5329253783271308e-06 3.5239665573509666e-06 -32.026810340139626 -1.9023899076132086e-06 -9.84909392882722 -27.32186269721173 3.531125038440127e-31 -6.361109362927035e-15 6.361109362927035e-15 3.955518131921354 -11.771219218033133 -16.353337264424717 -5.377453814865159 25.691015560491056 -21.431521009602477 88.08587484098837 -42.936259218393985 136.11117331437538 -8.74652537402467e-15 2.427648463927587e-31 -3.1805546814635168e-15 6.93667184984115 -4.1711992333964965 20.723998397900115 1.1626314115736047 17.93293841893692 12.193203847306492 -85.15243667097539 -39.1377327230147 -130.44535778815447 6.361109362927032e-15 -6.361109362927032e-15 -3.1805546814635156e-15
-92.9000015258789 -1.4000000953674316 -17.399999618530273 -2.8388163670014075 -7.058144716342962 97.23437035605764 2.5293357974065565 -2.1816653887690047 0.03694604301885522 3.938322816304534e-08 -2.2172324135312704e-07 -3.451180282094395 95.22533196077376 1.0428248248563867 171.47409580829571 2.132527872300053e-06 4.892004719764728e-07 32.38041196120642 179.99999764892115 -26.656200693715242 -120.8703681675881 0.0 6.3611093629270335e-15 0.0 -95.93590807810689 -4.190256100300305 -171.5458809677672 5.357950614248131e-07 1.4256227108014797e-06 -33.17933118990583 2.1088546512698582e-07 -8.662752192351395 -26.48099572369477 0.0 0.0 -6.3611093629270335e-15 3.926588121435829 -11.764766393876052 -16.62522675568472 -5.66654009336858 25.76536643647658 -21.1914245204865 88.31868091411364 -42.53090552858861 136.16659363307954 7.156248033292914e-15 -3.1805546814635168e-15 -3.1805546814635164e-15 6.7330444100289855 -4.134444581250145 21.066481945805766 1.496218473034607 17.622530256504202 11.956654636344883 -84.2840757639801 -38.746744300479655 -129.62707411923392 -8.827812596100317e-32 -3.1805546814635164e-15 -3.1805546814635164e-15
-92.79999542236328 -1.4000000953674316 -17.600000381469727 -2.838780571774211 -7.058144819171052 97.18401679028372 2.3688071628262515 -2.1585499198656612 0.039494913092995215 -3.6152401334052807e-07 4.491713578317445e-07 -3.413225318634415 95.71280957315494 1.7634462829400572 171.2737670371621 -1.6265448911052071e-06 2.380824758631103e-06 32.378742275976364 -179.99999982169038 -26.337985413613676 -120.13072852042657 3.531125038440127e-31 -6.3611093629270335e-15 6.3611093629270335e-15 -95.52515699201646 -4.197430979409421 -171.18352243181815 7.6201278236380605e-06 3.52393654284847e-06 -34.36239756132667 5.443390220836798e-07 -12.502529609179076 -26.639269723488926 0.0 0.0 6.3611093629270335e-15 3.9127156524310194 -11.91431857649543 -15.793134232304004 -5.640168334545355 26.07285665290884 -21.60895871919251 88.83893017301858 -42.97828699298252 136.61839854506587 -8.827812596100317e-32 3.1805546814635168e-15 3.1805546814635168e-15 6.719331961233453 -4.266481166232676 20.417421675032152 1.336692174707741 17.722386018825173 12.07774639538279 -84.16263761957771 -38.79324076478523 -129.5757730521634 -6.3611093629270335e-15 9.54166404439055e-15 5.29668755766019e-31
-92.79999542236328 -1.4000000953674316 -17.600000381469727 -2.8387803710830717 -7.523464879032512 96.67597675006641 2.707265427522679 -2.009219968371781 0.022179755800054705 -2.3493453527719822e-07 2.012356005384015e-07 -3.0489039668199855 96.260530849286 2.067836305692958 171.49052452779074 -2.277659454822624e-06 8.771817008152946e-07 31.984417377602817 -179.99999297798038 -27.556029237561138 -118.26884069590261 8.827812596100317e-32 6.361109362927035e-15 -1.5902773407317588e-15 -95.20469696317372 -4.471267563338021 -171.56979199389104 1.8713412008731026e-06 3.613004164169847e-06 -34.8840238516231 -7.992476611967119e-07 -12.967239856673892 -27.555386415086037 6.3611093629270335e-15 6.3611093629270335e-15 -3.531125038440127e-31 4.238904764000995 -11.630993346931524 -16.54557381915516 -5.758895591188719 25.753825328812894 -20.898688465209954 88.5446689802123 -42.270131301953825 136.177274725547 -7.951386703658791e-16 3.1805546814635164e-15 2.2069531490250793e-32 7.080691329906355 -4.2458509407915965 21.172163661189114 1.5404563704398389 17.652662378665564 12.207910489303314 -83.97801882244447 -38.851445707114834 -129.7852653724058 5.29668755766019e-31 -6.361109362927033e-15 9.541664044390549e-15
